<svg width="144" height="32" viewBox="0 0 144 32" fill="none" xmlns="http://www.w3.org/2000/svg">
<path fill-rule="evenodd" clip-rule="evenodd" d="M32 16C32 24.8366 24.8366 32 16 32C7.16344 32 0 24.8366 0 16C0 7.16344 7.16344 0 16 0C24.8366 0 32 7.16344 32 16ZM10.7144 14.5343C9.11157 15.2341 7.46472 15.9532 5.95883 16.7826L5.95873 16.7828C5.17241 17.3585 6.21758 17.7657 7.19803 18.1476C7.35391 18.2084 7.50814 18.2685 7.65313 18.3285C7.77377 18.3656 7.89647 18.4047 8.02079 18.4443C9.11124 18.7917 10.3272 19.1791 11.3858 18.5963C13.1248 17.5973 14.766 16.4424 16.4059 15.2883C16.9432 14.9102 17.4803 14.5322 18.0207 14.1598C18.046 14.1436 18.0746 14.1251 18.1058 14.1048C18.5662 13.8064 19.6016 13.1353 19.2186 14.06C18.313 15.0504 17.3429 15.9272 16.3676 16.8087C15.7103 17.4027 15.0506 17.999 14.4066 18.6336C13.8457 19.0894 13.2633 20.0059 13.8914 20.644C15.3379 21.6567 16.8071 22.6449 18.2755 23.6325C18.7533 23.9538 19.231 24.2752 19.7079 24.5972C20.516 25.2425 21.779 24.7206 21.9567 23.7123C22.0357 23.2485 22.115 22.7847 22.1944 22.3208C22.6328 19.7578 23.0713 17.1938 23.4587 14.6223C23.5113 14.219 23.571 13.8156 23.6307 13.4121C23.7755 12.434 23.9204 11.4547 23.9656 10.4714C23.849 9.49009 22.6592 9.70585 21.997 9.9265C18.5935 11.2216 15.224 12.6126 11.8679 14.0282C11.4877 14.1967 11.1023 14.3649 10.7144 14.5343Z" fill="white"/>
<path d="M88 16C88 7.1625 80.8375 0 72 0C63.1625 0 56 7.1625 56 16C56 23.9875 61.85 30.6062 69.5 31.8062V20.625H65.4375V16H69.5V12.475C69.5 8.46563 71.8875 6.25 75.5438 6.25C77.2938 6.25 79.125 6.5625 79.125 6.5625V10.5H77.1063C75.1188 10.5 74.5 11.7344 74.5 13V16H78.9375L78.2281 20.625H74.5V31.8062C82.15 30.6062 88 23.9875 88 16Z" fill="white"/>
<path fill-rule="evenodd" clip-rule="evenodd" d="M128 0C119.163 0 112 7.16344 112 16C112 24.8366 119.163 32 128 32C136.837 32 144 24.8366 144 16C144 7.16344 136.837 0 128 0ZM124.482 7.51824C125.392 7.47682 125.683 7.46668 128.001 7.46668H127.998C130.316 7.46668 130.606 7.47682 131.516 7.51824C132.425 7.55984 133.045 7.70366 133.589 7.91469C134.151 8.13247 134.626 8.42403 135.1 8.8987C135.575 9.37301 135.867 9.84911 136.085 10.4104C136.295 10.9529 136.439 11.573 136.482 12.4815C136.523 13.3917 136.533 13.6826 136.533 16.0001C136.533 18.3176 136.523 18.6078 136.482 19.518C136.439 20.4261 136.295 21.0464 136.085 21.5891C135.867 22.1502 135.575 22.6263 135.1 23.1006C134.626 23.5753 134.151 23.8676 133.59 24.0855C133.047 24.2965 132.426 24.4404 131.518 24.482C130.607 24.5234 130.317 24.5335 128 24.5335C125.682 24.5335 125.392 24.5234 124.481 24.482C123.573 24.4404 122.953 24.2965 122.41 24.0855C121.849 23.8676 121.373 23.5753 120.899 23.1006C120.424 22.6263 120.133 22.1502 119.915 21.589C119.704 21.0464 119.56 20.4263 119.518 19.5178C119.477 18.6076 119.467 18.3176 119.467 16.0001C119.467 13.6826 119.477 13.3915 119.518 12.4813C119.559 11.5732 119.703 10.9529 119.914 10.4102C120.133 9.84911 120.425 9.37301 120.899 8.8987C121.374 8.4242 121.85 8.13265 122.411 7.91469C122.954 7.70366 123.574 7.55984 124.482 7.51824Z" fill="white"/>
<path fill-rule="evenodd" clip-rule="evenodd" d="M127.235 9.00445C127.384 9.00422 127.544 9.00429 127.716 9.00437L128.001 9.00445C130.279 9.00445 130.549 9.01263 131.449 9.05352C132.281 9.09156 132.733 9.23059 133.033 9.34739C133.432 9.50206 133.716 9.68695 134.014 9.98562C134.313 10.2843 134.498 10.5687 134.653 10.967C134.769 11.2674 134.909 11.719 134.946 12.551C134.987 13.4505 134.996 13.7208 134.996 15.9981C134.996 18.2755 134.987 18.5457 134.946 19.4453C134.908 20.2773 134.769 20.7288 134.653 21.0293C134.498 21.4275 134.313 21.7111 134.014 22.0096C133.715 22.3082 133.432 22.4931 133.033 22.6478C132.733 22.7651 132.281 22.9038 131.449 22.9418C130.549 22.9827 130.279 22.9916 128.001 22.9916C125.722 22.9916 125.452 22.9827 124.553 22.9418C123.721 22.9034 123.269 22.7644 122.968 22.6476C122.57 22.4929 122.285 22.3081 121.987 22.0094C121.688 21.7107 121.503 21.427 121.348 21.0286C121.231 20.7281 121.092 20.2766 121.054 19.4446C121.013 18.545 121.005 18.2748 121.005 15.996C121.005 13.7172 121.013 13.4484 121.054 12.5488C121.092 11.7168 121.231 11.2653 121.348 10.9645C121.503 10.5662 121.688 10.2818 121.987 9.98313C122.285 9.68446 122.57 9.49957 122.968 9.34455C123.269 9.22721 123.721 9.08854 124.553 9.05032C125.34 9.01476 125.645 9.0041 127.235 9.00232V9.00445ZM132.556 10.4213C131.991 10.4213 131.532 10.8795 131.532 11.445C131.532 12.0103 131.991 12.469 132.556 12.469C133.121 12.469 133.58 12.0103 133.58 11.445C133.58 10.8797 133.121 10.421 132.556 10.421V10.4213ZM123.619 16.0001C123.619 13.58 125.581 11.6179 128.001 11.6178C130.421 11.6178 132.382 13.58 132.382 16.0001C132.382 18.4202 130.421 20.3815 128.001 20.3815C125.581 20.3815 123.619 18.4202 123.619 16.0001Z" fill="white"/>
<path d="M128.001 13.1556C129.572 13.1556 130.845 14.4291 130.845 16.0001C130.845 17.571 129.572 18.8446 128.001 18.8446C126.43 18.8446 125.156 17.571 125.156 16.0001C125.156 14.4291 126.43 13.1556 128.001 13.1556Z" fill="white"/>
</svg>
